<svg width="266" height="346" viewBox="0 0 266 346" fill="none" xmlns="http://www.w3.org/2000/svg">
<g filter="url(#filter0_d_0_4050)">
<path d="M132.774 337C106.806 337 84.31 330.208 65.2869 316.623C46.2638 303.038 31.468 283.717 20.8996 258.66C10.6332 233.604 5.5 203.868 5.5 169.453C5.5 135.038 10.6332 105.302 20.8996 80.2453C31.468 54.8868 46.2638 35.4151 65.2869 21.8302C84.31 7.9434 106.806 1 132.774 1C159.044 1 181.69 7.9434 200.713 21.8302C219.736 35.4151 234.381 54.7358 244.647 79.7924C255.216 104.849 260.5 134.736 260.5 169.453C260.5 203.868 255.216 233.604 244.647 258.66C234.381 283.717 219.736 303.038 200.713 316.623C181.69 330.208 159.044 337 132.774 337ZM132.774 298.962C160.553 298.962 181.992 287.792 197.09 265.453C212.187 242.811 219.736 210.811 219.736 169.453C219.736 141.679 216.264 118.132 209.319 98.8113C202.676 79.1887 192.862 64.3962 179.878 54.434C167.196 44.1698 151.495 39.0377 132.774 39.0377C114.354 39.0377 98.6527 44.1698 85.6687 54.434C72.9867 64.3962 63.1732 79.1887 56.2282 98.8113C49.5853 118.132 46.2638 141.679 46.2638 169.453C46.2638 210.811 53.8126 242.811 68.9103 265.453C84.008 287.792 105.296 298.962 132.774 298.962Z" fill="#0060AF" fill-opacity="0.6" shape-rendering="crispEdges"/>
<path d="M132.773 0.5C159.134 0.5 181.885 7.46884 201.003 21.4229C220.113 35.0698 234.812 54.4704 245.108 79.5977L245.602 80.7793C255.873 105.668 261 135.23 261 169.453C261 203.918 255.709 233.723 245.108 258.854C234.812 283.982 220.114 303.382 201.004 317.029C181.886 330.682 159.134 337.5 132.773 337.5C106.713 337.5 84.1133 330.681 64.9961 317.029C45.8863 303.382 31.0368 283.982 20.4385 258.854L20.4365 258.85C10.1399 233.719 5.00003 203.916 5 169.453C5 134.99 10.1398 105.186 20.4365 80.0557L20.4385 80.0527C31.0363 54.6236 45.8848 35.0708 64.9961 21.4229C84.1126 7.46927 106.713 0.50002 132.773 0.5ZM132.773 39.5381C114.453 39.5381 98.8642 44.6397 85.9785 54.8262L85.9775 54.8271C73.3899 64.7152 63.6225 79.4163 56.7002 98.9727L56.7012 98.9736C50.0813 118.227 46.7637 141.716 46.7637 169.453C46.7637 210.759 54.3042 242.646 69.3242 265.173L70.0322 266.205C84.9889 287.716 105.885 298.462 132.773 298.462C160.393 298.462 181.674 287.37 196.676 265.173C211.696 242.646 219.236 210.759 219.236 169.453C219.236 141.718 215.768 118.232 208.849 98.9805L208.845 98.9717V98.9707C202.225 79.4176 192.461 64.7186 179.574 54.8311L179.563 54.8223C166.983 44.6408 151.398 39.5381 132.773 39.5381Z" stroke="#7E8EA1" shape-rendering="crispEdges"/>
</g>
<defs>
<filter id="filter0_d_0_4050" x="0.5" y="0" width="265" height="346" filterUnits="userSpaceOnUse" color-interpolation-filters="sRGB">
<feFlood flood-opacity="0" result="BackgroundImageFix"/>
<feColorMatrix in="SourceAlpha" type="matrix" values="0 0 0 0 0 0 0 0 0 0 0 0 0 0 0 0 0 0 127 0" result="hardAlpha"/>
<feOffset dy="4"/>
<feGaussianBlur stdDeviation="2"/>
<feComposite in2="hardAlpha" operator="out"/>
<feColorMatrix type="matrix" values="0 0 0 0 0 0 0 0 0 0 0 0 0 0 0 0 0 0 0.25 0"/>
<feBlend mode="hard-light" in2="BackgroundImageFix" result="effect1_dropShadow_0_4050"/>
<feBlend mode="normal" in="SourceGraphic" in2="effect1_dropShadow_0_4050" result="shape"/>
</filter>
</defs>
</svg>
