<svg width="32" height="29" viewBox="0 0 32 29" fill="none" xmlns="http://www.w3.org/2000/svg">
<path d="M15.1093 0.774899C15.4804 0.0476478 16.5196 0.0476499 16.8907 0.774901L20.8649 8.56224C21.0102 8.84696 21.2828 9.04506 21.5985 9.09527L30.2328 10.4685C31.0391 10.5967 31.3602 11.585 30.7833 12.1627L24.6051 18.3488C24.3793 18.5749 24.2751 18.8955 24.3249 19.2112L25.6871 27.8473C25.8143 28.6538 24.9736 29.2646 24.2458 28.8944L16.4534 24.9302C16.1685 24.7853 15.8315 24.7853 15.5466 24.9302L7.75415 28.8944C7.02642 29.2646 6.18573 28.6538 6.31294 27.8473L7.67508 19.2112C7.72488 18.8955 7.62074 18.5749 7.39485 18.3488L1.21673 12.1627C0.639759 11.585 0.960875 10.5967 1.76722 10.4685L10.4015 9.09527C10.7172 9.04506 10.9898 8.84696 11.1351 8.56224L15.1093 0.774899Z" fill="#39B54A"/>
</svg>
