<svg width="18" height="18" viewBox="0 0 18 18" fill="none" xmlns="http://www.w3.org/2000/svg">
<path d="M18.0006 13.9999V0.999931C18.0006 0.734715 17.8952 0.48036 17.7077 0.292824C17.5201 0.105288 17.2658 -6.86646e-05 17.0006 -6.86646e-05H4.00056C3.73534 -6.86646e-05 3.48099 0.105288 3.29345 0.292824C3.10591 0.48036 3.00056 0.734715 3.00056 0.999931C3.00056 1.26515 3.10591 1.5195 3.29345 1.70704C3.48099 1.89458 3.73534 1.99993 4.00056 1.99993H14.5868L0.293056 16.2924C0.105415 16.4801 -1.97712e-09 16.7346 0 16.9999C1.97712e-09 17.2653 0.105415 17.5198 0.293056 17.7074C0.480697 17.8951 0.735192 18.0005 1.00056 18.0005C1.26592 18.0005 1.52042 17.8951 1.70806 17.7074L16.0006 3.41368V13.9999C16.0006 14.2651 16.1059 14.5195 16.2934 14.707C16.481 14.8946 16.7353 14.9999 17.0006 14.9999C17.2658 14.9999 17.5201 14.8946 17.7077 14.707C17.8952 14.5195 18.0006 14.2651 18.0006 13.9999Z" fill="#3FA9F5"/>
</svg>
