<svg width="20" height="14" viewBox="0 0 20 14" fill="none" xmlns="http://www.w3.org/2000/svg">
<path d="M14.375 4.0272V3.59204C14.375 1.63267 11.4195 0.154541 7.5 0.154541C3.58047 0.154541 0.625 1.63267 0.625 3.59204V6.71704C0.625 8.34907 2.67578 9.64595 5.625 10.0342V10.467C5.625 12.4264 8.58047 13.9045 12.5 13.9045C16.4195 13.9045 19.375 12.4264 19.375 10.467V7.34204C19.375 5.72485 17.3891 4.42642 14.375 4.0272ZM18.125 7.34204C18.125 8.37485 15.7195 9.52954 12.5 9.52954C12.2086 9.52954 11.9195 9.51939 11.6344 9.50064C13.3195 8.88657 14.375 7.88892 14.375 6.71704V5.29048C16.7086 5.63813 18.125 6.58188 18.125 7.34204ZM5.625 8.76782V6.90923C6.2467 6.99024 6.87304 7.03043 7.5 7.02954C8.12696 7.03043 8.7533 6.99024 9.375 6.90923V8.76782C8.75422 8.85953 8.12751 8.90523 7.5 8.90454C6.87249 8.90523 6.24578 8.85953 5.625 8.76782ZM13.125 5.61782V6.71704C13.125 7.37251 12.1555 8.07642 10.625 8.50376V6.67798C11.6336 6.43345 12.4875 6.06938 13.125 5.61782ZM7.5 1.40454C10.7195 1.40454 13.125 2.55923 13.125 3.59204C13.125 4.62485 10.7195 5.77954 7.5 5.77954C4.28047 5.77954 1.875 4.62485 1.875 3.59204C1.875 2.55923 4.28047 1.40454 7.5 1.40454ZM1.875 6.71704V5.61782C2.5125 6.06938 3.36641 6.43345 4.375 6.67798V8.50376C2.84453 8.07642 1.875 7.37251 1.875 6.71704ZM6.875 10.467V10.1413C7.08047 10.1491 7.28828 10.1545 7.5 10.1545C7.80312 10.1545 8.09922 10.1444 8.38984 10.1272C8.7127 10.2428 9.04157 10.3408 9.375 10.4209V12.2538C7.84453 11.8264 6.875 11.1225 6.875 10.467ZM10.625 12.5178V10.6545C11.2465 10.7381 11.8729 10.7798 12.5 10.7795C13.127 10.7804 13.7533 10.7402 14.375 10.6592V12.5178C13.1316 12.7001 11.8684 12.7001 10.625 12.5178ZM15.625 12.2538V10.428C16.6336 10.1834 17.4875 9.81938 18.125 9.36782V10.467C18.125 11.1225 17.1555 11.8264 15.625 12.2538Z" fill="#343330"/>
</svg>
