<svg width="14" height="18" viewBox="0 0 14 18" fill="none" xmlns="http://www.w3.org/2000/svg">
<path d="M7 4.02954C6.38193 4.02954 5.77775 4.21282 5.26384 4.5562C4.74994 4.89958 4.3494 5.38764 4.11288 5.95866C3.87635 6.52967 3.81447 7.15801 3.93505 7.7642C4.05562 8.37039 4.35325 8.92721 4.79029 9.36425C5.22733 9.80129 5.78415 10.0989 6.39034 10.2195C6.99653 10.3401 7.62487 10.2782 8.19589 10.0417C8.7669 9.80514 9.25496 9.4046 9.59834 8.8907C9.94172 8.37679 10.125 7.77261 10.125 7.15454C10.125 6.32574 9.79576 5.53088 9.20971 4.94483C8.62366 4.35878 7.8288 4.02954 7 4.02954ZM7 9.02954C6.62916 9.02954 6.26665 8.91957 5.95831 8.71355C5.64996 8.50752 5.40964 8.21468 5.26773 7.87207C5.12581 7.52946 5.08868 7.15246 5.16103 6.78875C5.23337 6.42503 5.41195 6.09094 5.67417 5.82872C5.9364 5.56649 6.27049 5.38792 6.63421 5.31557C6.99792 5.24322 7.37492 5.28035 7.71753 5.42227C8.06014 5.56418 8.35298 5.8045 8.55901 6.11285C8.76503 6.42119 8.875 6.7837 8.875 7.15454C8.875 7.65182 8.67746 8.12874 8.32583 8.48037C7.97419 8.832 7.49728 9.02954 7 9.02954ZM7 0.279541C5.17727 0.281609 3.42979 1.0066 2.14092 2.29547C0.85206 3.58433 0.127068 5.33181 0.125 7.15454C0.125 9.60767 1.25859 12.2077 3.40625 14.6741C4.37127 15.7886 5.45739 16.7922 6.64453 17.6663C6.74962 17.7399 6.87482 17.7794 7.00312 17.7794C7.13143 17.7794 7.25663 17.7399 7.36172 17.6663C8.54668 16.7918 9.63069 15.7882 10.5938 14.6741C12.7383 12.2077 13.875 9.60767 13.875 7.15454C13.8729 5.33181 13.1479 3.58433 11.8591 2.29547C10.5702 1.0066 8.82273 0.281609 7 0.279541ZM7 16.3733C5.70859 15.3577 1.375 11.6272 1.375 7.15454C1.375 5.6627 1.96763 4.23196 3.02252 3.17707C4.07742 2.12217 5.50816 1.52954 7 1.52954C8.49184 1.52954 9.92258 2.12217 10.9775 3.17707C12.0324 4.23196 12.625 5.6627 12.625 7.15454C12.625 11.6256 8.29141 15.3577 7 16.3733Z" fill="#222222"/>
</svg>
