<svg width="17" height="17" viewBox="0 0 17 17" fill="none" xmlns="http://www.w3.org/2000/svg">
<path d="M15.3727 11.4093L11.6922 9.7601L11.682 9.75541C11.491 9.67369 11.2825 9.64089 11.0756 9.65999C10.8687 9.67909 10.6698 9.74947 10.4969 9.86478C10.4765 9.87823 10.457 9.89284 10.4383 9.90853L8.53673 11.5296C7.33204 10.9445 6.08829 9.7101 5.50313 8.52103L7.12657 6.59056C7.14219 6.57103 7.15704 6.5515 7.1711 6.53041C7.28394 6.35799 7.35239 6.16035 7.37039 5.95507C7.38838 5.7498 7.35534 5.54327 7.27423 5.35385V5.34447L5.62032 1.65775C5.51309 1.4103 5.3287 1.20417 5.09468 1.07013C4.86067 0.936082 4.58958 0.881315 4.32188 0.914002C3.26326 1.0533 2.29155 1.5732 1.58824 2.37658C0.884919 3.17996 0.498093 4.21189 0.500007 5.27963C0.500007 11.4828 5.54688 16.5296 11.75 16.5296C12.8177 16.5315 13.8497 16.1447 14.6531 15.4414C15.4564 14.7381 15.9763 13.7664 16.1156 12.7078C16.1484 12.4401 16.0937 12.1691 15.9598 11.9351C15.8259 11.7011 15.62 11.5167 15.3727 11.4093ZM11.75 15.2796C9.09873 15.2767 6.55687 14.2222 4.68214 12.3475C2.8074 10.4728 1.7529 7.9309 1.75001 5.27963C1.74707 4.51673 2.02192 3.77884 2.52324 3.20377C3.02456 2.6287 3.71806 2.25577 4.47423 2.15463C4.47392 2.15774 4.47392 2.16088 4.47423 2.164L6.11485 5.83588L4.50001 7.76869C4.48362 7.78755 4.46873 7.80766 4.45548 7.82885C4.33791 8.00925 4.26894 8.21697 4.25525 8.43186C4.24157 8.64676 4.28362 8.86155 4.37735 9.05541C5.08516 10.5031 6.54376 11.9507 8.00704 12.6578C8.20232 12.7506 8.41835 12.7912 8.63403 12.7756C8.8497 12.76 9.05763 12.6887 9.23751 12.5687C9.25757 12.5552 9.27687 12.5406 9.29532 12.5249L11.1945 10.9046L14.8664 12.5492C14.8664 12.5492 14.8727 12.5492 14.875 12.5492C14.7751 13.3064 14.4027 14.0013 13.8275 14.5039C13.2524 15.0064 12.5138 15.2822 11.75 15.2796Z" fill="#343330"/>
</svg>
