<svg width="25" height="27" viewBox="0 0 25 27" fill="none" xmlns="http://www.w3.org/2000/svg">
<path fill-rule="evenodd" clip-rule="evenodd" d="M25 12.178C25 4.53512 22.3462 1.0293 13.5 1.0293C4.65385 1.0293 2 4.53512 2 12.178C2 17.6172 3.3441 20.9611 7.30769 22.4372V25.0105C7.30769 25.9577 8.47917 26.3903 9.086 25.6673L11.1313 23.2302C11.8664 23.2947 12.655 23.3267 13.5 23.3267C22.3462 23.3267 25 19.8209 25 12.178ZM11.62 21.4723C12.2064 21.5195 12.8323 21.5429 13.5 21.5429C20.9852 21.5429 23.2308 18.598 23.2308 12.178C23.2308 5.75799 20.9852 2.81309 13.5 2.81309C6.01479 2.81309 3.76923 5.75799 3.76923 12.178C3.76923 16.7159 4.89114 19.5176 8.19231 20.7703V24.5825C8.19231 24.9149 8.60335 25.0667 8.81628 24.813L11.62 21.4723Z" fill="#222222"/>
<path d="M9.10059 7.79199C9.36139 8.05566 9.76552 8.52015 10.0371 8.91602C10.1792 9.12317 10.3517 9.38707 10.4951 9.61621C10.5667 9.73058 10.6291 9.83419 10.6768 9.91602C10.7291 10.0058 10.7476 10.0444 10.748 10.0449C10.7499 10.0531 10.7528 10.0689 10.7559 10.0918C10.7615 10.1346 10.7646 10.1878 10.7607 10.2432C10.7523 10.3625 10.7177 10.4394 10.6797 10.4795C10.4826 10.6872 10.2124 10.8816 10.1094 10.9473L10.0684 10.9736L10.0332 11.0068C9.80637 11.2228 9.51673 11.7545 9.77832 12.3984C9.99129 12.9224 10.4725 14.0125 11.3271 14.8389C12.1597 15.6437 13.0576 16.0864 13.667 16.2344L13.7256 16.248H13.7666C13.7698 16.2486 13.7741 16.249 13.7793 16.25C13.7879 16.2517 13.7972 16.2543 13.8096 16.2568C13.8891 16.2729 14.0749 16.3135 14.2822 16.2871C14.5128 16.2577 14.7481 16.1508 14.9443 15.9258C15.1687 15.6684 15.3725 15.4 15.4668 15.2715C15.468 15.2703 15.4699 15.2691 15.4717 15.2676C15.4784 15.2615 15.4876 15.2541 15.499 15.2461C15.5226 15.2295 15.5516 15.2135 15.583 15.2021C15.6402 15.1815 15.7101 15.1731 15.7998 15.208C16.2642 15.3888 16.8301 15.8053 17.1143 16.0254C17.3303 16.1927 17.8227 16.5977 18.0459 16.7832V16.7842C18.049 16.7875 18.0808 16.8209 18.0996 16.877C18.1154 16.924 18.1242 16.9925 18.084 17.0918C18.0046 17.2874 17.7573 17.671 17.4219 18.0059C17.0699 18.3571 16.7466 18.5293 16.5342 18.5293C16.5671 18.5293 16.5434 18.5317 16.4209 18.5C16.3187 18.4736 16.1774 18.4315 16.0029 18.3711C15.6541 18.2503 15.183 18.061 14.6377 17.791C13.5456 17.2502 12.1682 16.392 10.8779 15.1279C10.0697 14.3361 9.30243 13.2353 8.70215 12.1992C8.09696 11.1546 7.69364 10.2323 7.58496 9.81055L7.57617 9.77734L7.56348 9.74512L7.52246 9.60449C7.50978 9.54281 7.50038 9.46875 7.5 9.38965C7.49926 9.23439 7.5344 9.09797 7.61035 8.99316C7.90448 8.58745 8.20527 8.20366 8.86914 7.83398C8.88675 7.82423 8.91457 7.81232 8.94922 7.80273C8.98394 7.79314 9.01836 7.78766 9.04785 7.78711C9.10644 7.78606 9.1118 7.80153 9.10059 7.79199Z" fill="#222222" stroke="#222222" stroke-linecap="round"/>
</svg>
