<svg width="109" height="72" viewBox="0 0 109 72" fill="none" xmlns="http://www.w3.org/2000/svg">
<g clip-path="url(#clip0_334_1337)">
<path d="M16.3377 55.8291V70.7823H12.2055V63.0464L8.88011 67.5781H7.51299L4.15062 63.0711V70.7823H0V55.8291H3.55328L8.19655 62.2561L12.7782 55.8291H16.3377Z" fill="#3FA9F5"/>
<path d="M30.187 67.0656V70.77H19.4902V55.8291H29.8668V59.5335H23.7086V61.4535H29.5219V64.8739H23.7086V67.0533L30.187 67.0656Z" fill="#3FA9F5"/>
<path d="M38.4328 70.7823H32.6133V55.8291H38.4328C43.1992 55.8291 46.4384 58.4777 46.4384 63.3057C46.4384 68.1337 43.23 70.7823 38.4328 70.7823ZM38.0263 59.5458H36.8316V67.0656H38.0263C40.6005 67.0656 42.0723 65.8308 42.0723 63.3057C42.0723 60.7806 40.6005 59.5458 38.0263 59.5458Z" fill="#3FA9F5"/>
<path d="M53.1949 55.8291V70.7823H48.9766V55.8291H53.1949Z" fill="#3FA9F5"/>
<path d="M65.2519 67.8127H60.5655L59.5617 70.7823H55.0293L60.6948 55.8291H65.2088L70.8743 70.7823H66.2311L65.2519 67.8127ZM64.1681 64.6084L62.9364 60.7868L61.637 64.6084H64.1681Z" fill="#3FA9F5"/>
<path d="M78.0543 65.5468H76.9274V70.7823H72.709V55.8291H79.9326C83.1902 55.8291 85.1054 58.027 85.1054 60.5274C85.1052 61.5027 84.7954 62.4527 84.2208 63.2396C83.6461 64.0266 82.8366 64.6098 81.9093 64.9048L85.6412 70.7823H81.0164L78.0543 65.5468ZM76.9274 59.3729V62.2068H79.1874C79.3859 62.2294 79.5869 62.2097 79.7772 62.1489C79.9676 62.0882 80.143 61.9877 80.2918 61.8542C80.4407 61.7207 80.5597 61.5571 80.6411 61.3742C80.7225 61.1913 80.7643 60.9932 80.7639 60.7929C80.7639 59.7928 80.0188 59.3606 79.1012 59.3606L76.9274 59.3729Z" fill="#3FA9F5"/>
<path d="M91.9488 55.8291V70.7823H87.7305V55.8291H91.9488Z" fill="#3FA9F5"/>
<path d="M103.859 70.7823L99.3199 64.6084V70.7823H95.1016V55.8291H99.3199V61.3856L103.471 55.8291H108.508L102.842 62.6204L109.001 70.7823H103.859Z" fill="#3FA9F5"/>
<path d="M27.6195 48.939L16.7503 45.2902C15.9161 45.0105 15.1907 44.4749 14.6768 43.7591C14.1629 43.0434 13.8865 42.1838 13.8867 41.3019V32.041H22.0833L27.6195 48.939Z" fill="#006837"/>
<path d="M90.0322 53.3596L80.7949 55.8292L86.1525 40.4438L93.0436 40.2585V49.4021C93.0473 50.3024 92.754 51.1786 92.2094 51.8944C91.6647 52.6102 90.8993 53.1253 90.0322 53.3596Z" fill="#0071BC"/>
<path d="M40.8222 9.9446C40.8238 8.57024 41.3695 7.25272 42.3395 6.28147C43.3094 5.31023 44.6242 4.76469 45.9951 4.76469H61.2551C60.9104 3.41072 60.1259 2.21034 59.0253 1.3529C57.9247 0.495464 56.5708 0.0297748 55.1769 0.0292969H20.1307C18.4658 0.0309333 16.8697 0.695131 15.6931 1.87594C14.5164 3.05676 13.8555 4.65759 13.8555 6.32669V41.1167C14.2558 39.8819 15.5613 39.2645 17.8706 39.3139H40.8222V9.9446Z" fill="#39B54A"/>
<path d="M74.8958 48.0562V38.0112L68.3251 46.5682L61.7419 38.0544V48.0562H47.8429C47.2852 48.057 46.7328 47.9475 46.2173 47.7341C45.7018 47.5207 45.2333 47.2075 44.8387 46.8124C44.444 46.4173 44.1309 45.9481 43.9173 45.4316C43.7037 44.9151 43.5937 44.3615 43.5938 43.8023V11.1794C43.5937 10.6202 43.7037 10.0666 43.9173 9.55007C44.1309 9.03357 44.444 8.56436 44.8387 8.16927C45.2333 7.77419 45.7018 7.46098 46.2173 7.24757C46.7328 7.03416 47.2852 6.92473 47.8429 6.92554H61.7543L68.4051 16.4087L74.8774 6.92554H88.801C89.3585 6.92473 89.9106 7.0342 90.4257 7.24769C90.9409 7.46118 91.4089 7.77448 91.8031 8.16965C92.1973 8.56481 92.5098 9.03407 92.7227 9.55054C92.9356 10.067 93.0448 10.6205 93.044 11.1794V49.3712C92.6499 48.3278 90.901 48.0315 88.567 48.0562H74.8958Z" fill="#3FA9F5"/>
</g>
<defs>
<clipPath id="clip0_334_1337">
<rect width="109" height="71" fill="white" transform="translate(0 0.0292969)"/>
</clipPath>
</defs>
</svg>
