<svg width="26" height="21" viewBox="0 0 26 21" fill="none" xmlns="http://www.w3.org/2000/svg">
<path d="M10.1714 20.3995L0.978991 11.2071C0.791454 11.0196 0.686097 10.7652 0.686097 10.5C0.686097 10.2348 0.791454 9.98043 0.978991 9.79289L10.1714 0.600505C10.3589 0.412968 10.6133 0.307611 10.8785 0.307611C11.1437 0.307611 11.3981 0.412968 11.5856 0.600505C11.7731 0.788041 11.8785 1.0424 11.8785 1.30761C11.8785 1.57283 11.7731 1.82718 11.5856 2.01472L4.09998 9.50033L24.3135 9.49944C24.5789 9.49944 24.8334 9.60486 25.021 9.7925C25.2087 9.98014 25.3141 10.2346 25.3141 10.5C25.3141 10.7654 25.2087 11.0199 25.021 11.2075C24.8334 11.3951 24.5789 11.5006 24.3135 11.5006L4.09998 11.4997L11.5856 18.9853C11.7731 19.1728 11.8785 19.4272 11.8785 19.6924C11.8785 19.9576 11.7731 20.212 11.5856 20.3995C11.3981 20.587 11.1437 20.6924 10.8785 20.6924C10.6133 20.6924 10.3589 20.587 10.1714 20.3995Z" fill="#3FA9F5"/>
</svg>
