<svg width="26" height="21" viewBox="0 0 26 21" fill="none" xmlns="http://www.w3.org/2000/svg">
<path d="M15.8286 20.3995L25.021 11.2071C25.2085 11.0196 25.3139 10.7652 25.3139 10.5C25.3139 10.2348 25.2085 9.98043 25.021 9.79289L15.8286 0.600505C15.6411 0.412968 15.3867 0.307611 15.1215 0.307611C14.8563 0.307611 14.6019 0.412968 14.4144 0.600505C14.2269 0.788041 14.1215 1.0424 14.1215 1.30761C14.1215 1.57283 14.2269 1.82718 14.4144 2.01472L21.9 9.50033L1.68648 9.49944C1.42112 9.49944 1.16662 9.60486 0.978984 9.7925C0.791344 9.98014 0.685928 10.2346 0.685928 10.5C0.685928 10.7654 0.791344 11.0199 0.978984 11.2075C1.16662 11.3951 1.42112 11.5006 1.68648 11.5006L21.9 11.4997L14.4144 18.9853C14.2269 19.1728 14.1215 19.4272 14.1215 19.6924C14.1215 19.9576 14.2269 20.212 14.4144 20.3995C14.6019 20.587 14.8563 20.6924 15.1215 20.6924C15.3867 20.6924 15.6411 20.587 15.8286 20.3995Z" fill="white"/>
</svg>
